<svg viewBox="0 0 479 118" id="logo" xmlns="http://www.w3.org/2000/svg">
  <g fill="none" fill-rule="evenodd">
    <path fill="#093566" d="M85.738 114.883a3.108 3.108 0 0 1 3.115-3.098 3.1 3.1 0 0 1 3.098 3.098A3.103 3.103 0 0 1 88.853 118a3.112 3.112 0 0 1-3.115-3.117zm5.721 0c0-1.508-1.096-2.689-2.606-2.689-1.518 0-2.625 1.181-2.625 2.689 0 1.529 1.107 2.708 2.625 2.708 1.51 0 2.606-1.179 2.606-2.708zm-1.056 1.738h-.508l-.993-1.598h-.779v1.598h-.424v-3.469h1.514c.917 0 1.233.346 1.233.92 0 .681-.479.936-1.092.951l1.049 1.598zm-1.631-1.934c.494 0 1.214.083 1.214-.621 0-.546-.445-.61-.871-.61h-.992v1.231h.649zM0 103.319c0 8.106 6.571 14.677 14.679 14.677h56.355c8.106 0 14.674-6.571 14.674-14.677V14.934C85.708 6.828 79.14.255 71.034.459H14.679C6.571.255 0 6.828 0 14.934v88.385"></path>
    <path fill="#FFFFFE" d="M14.679 3.607c-6.256 0-11.325 5.074-11.325 11.327v88.385c0 6.256 5.069 11.325 11.325 11.325h56.355c6.253 0 11.325-5.069 11.325-11.325V14.934c0-6.253-5.072-11.327-11.325-11.327H14.679"></path>
    <path fill="#093566" d="M14.608 5.327c-5.303 0-9.605 4.301-9.605 9.607v88.385c0 5.302 4.302 9.605 9.605 9.605h56.357c5.304 0 9.605-4.303 9.605-9.605V14.934c0-5.306-4.301-9.607-9.605-9.607H14.608"></path>
    <path fill="#FFFFFE" d="M17.268 20.534h1.563c.862 0 1.55.554 1.55 1.433 0 .88-.719 1.418-1.795 1.418h-1.318v-2.851zm-2.887 6.345c0 .354-.215.565-.598.565h-.937v1.249h6.047v-1.249h-1.027c-.385 0-.598-.211-.598-.565v-2.244h1.687c2.825 0 4.315-.737 4.315-2.683 0-1.944-1.49-2.667-4.009-2.667h-6.43v1.249h.952c.383 0 .598.211.598.567v5.778zm21.109-1.903h-.707c-.383 0-.6.213-.6.568v3.263H32.85l-.339-.695c-.89.639-2.029.865-3.025.865-3.194 0-5.434-1.674-5.434-4.853 0-3.207 2.165-5.125 5.434-5.125.892 0 1.997.271 2.765.952l.305-.794h1.382l.006 3.313h-1.431c-.044-1.404-.956-2.149-2.504-2.149-1.782 0-2.627 1.22-2.627 3.675 0 2.458.845 3.633 2.627 3.633.582 0 1.289-.213 1.289-.88v-1.205c0-.355-.216-.568-.601-.568h-.796v-1.248h5.589v1.248m11.7 2.643c-1.028-.175-1.06-.401-1.448-1.253l-3.032-6.982h-2.312l-2.896 6.452c-.445.943-.73 1.676-2.044 1.795v1.092h4.612v-1.092l-.151-.012c-.358-.054-1.175-.054-1.175-.52 0-.173.102-.439.176-.611l.181-.446h3.648l.204.446c.055.185.205.53.205.717 0 .414-.922.387-1.238.426v1.092h5.432v-1.092l-.162-.012zm-7.65-2.697l1.41-3.159 1.292 3.159H39.54z"></path>
    <path fill="#FFFFFE" d="M73.665 32.503c1.457-1.48 1.491-5.03 1.491-5.03-1.465-2.668-4.54-3.468-4.54-3.468-.685-.488-1.237-.039-1.458.204h-.013L44.488 9.158c-1.795-.929-4.275 2.253-4.901 3.421-.25.426.555 1.05 1.1 1.384 2.241 1.467 3.312-2.293 4.131-3.622l23.85 15.048c-.047.017.079 1.243.141 1.297-.018 1.959 1.549 3.581.625 6.413-.248 3.971-4.554 4.765-6.892 7.23-2.157 2.111-6.4 1.845-8.18 3.578-.013.017-.05.049-.05.049l-.015-.075c-1.532-4.013-2.444-4.239-2.914-5.851-1.881-.709-4.094-.879-5.894.085-1.72 1.125-2.587 3.258-2.293 5.138.038 1.923 2.753 4.01 4.178 4.844-.914 1.327-1.353 2.94-1.374 3.613-.226 2.847 2.031 5.575 2.664 6.701 2.669 3.961 4.177 7.103 4.767 8.21.094.216.236.388.098.684-.034.077-2.304 4.05 1.444 9.75 1.526 2.932 3.717 9.475 3.738 9.509.871.931-1.183.355-1.394 2.5-1.471.575-12.616 9.106-15.126 11.361-1.001.294-2.298.252-2.717 1.504-.064.1-.451 1.209-.694 1.477-1.074 1.235-2.324 3.432-2.557 5.584-.245 1.102.031 3.249 1.317 3.819.582.258.827.074.98 0 .168-.085.89-2.044.984-2.27.888-2.157 2.191-2.736 5.197-5.725 1.501.417 2.159 1.305 3.705 1.682 4.182-3.882 8.385-7.438 12.494-11.421-.63 6.166-1.214 12.498-1.198 14.193-.265 1.082-.296 2.933.468 3.848 0 0 6.827.4 8.144.304.654-.051.69-.441.69-.441s.612-.915-1.045-2.146c-.48-.355-1.631-1.785-2.523-2.372 1.177-.264 2.418-.468 2.691-.468-.315-3.239-.383-10.244-.618-19.407-1.017-9.489-1.102-12.683-5.829-32.129 3.345-3.803 3.215-6.165 6.432-10.093 1.731-3.375 4.404-10.229 5.553-13.861zM59.403 50.056c-.08-.272-.604-1.62-.845-2.336-.032-.096 4.27-2.906 4.27-2.906s.055.23.087.509c0 0-2.905 4.339-3.512 4.733zm-26.89 51.334c-.14.002-.698-.054-.687-.676l.004-.644c0-.996-.073-2.037-.558-2.973a3.11 3.11 0 0 0-.394-.604c.053-.039.116-.067.162-.105l.028-.021.025-.021c1.091-.932 1.642-2.179 1.642-3.699 0-1.036-.26-2.112-.731-3.029l-.021-.039-.021-.039c-.679-1.132-1.663-1.883-2.972-2.284 1.784-1.054 2.691-2.845 2.691-5.372v-8.168h2.135l-.031-5.346h-5.013c2.907-1.627 4.578-4.642 4.578-8.654 0-4.407-1.893-7.12-4.477-8.587h1.937v-4.974h-3.765v-8.898c.842.041 1.416.897 1.47 2.221l.066 1.646 5.182.017v-9.26H12.709v9.26l5.191-.017.064-1.646c.052-1.326.626-2.18 1.465-2.221v8.898h-3.762v4.974h1.612c-2.585 1.467-4.478 4.18-4.478 8.587 0 4.012 1.674 7.027 4.582 8.654h-4.546v5.337h2.144V82.4c0 1.639.756 3.34 2.606 4.507l-4.814-.009-.013 5.267s1.591.016 2.047.009c-.005.058.358.005.311.377-.009 1.474-.011 6.769-.009 8.417 0 .441-.313.309-.313.39-.434-.007-2.025.007-2.025.007l.002 5.216h12.778v-1.535c.988 1.094 2.414 1.648 4.265 1.648h4.392v-5.287l-1.695-.017zm-9.781-27.674l3.104-.009s.262.018.262.253v8.062c0 .575-.502 1.044-1.769 1.044-1.265 0-1.908-.465-1.908-1.039v-8.062c0-.209.311-.249.311-.249zm2.52-14c0 3.19-.7 4.806-2.08 4.806-.674 0-2.082 0-2.082-4.806 0-4.807 1.461-4.807 2.082-4.807.878 0 2.08 0 2.08 4.807zm-2.493 41.635c-.357 0-.368-.327-.368-.327v-2.031h1.335c.411 0 .617.059.617.525.007.122.011.972.011.972 0 .261-.017.593-.004.861h-1.591zm-.338-7.398v-2.204h2.082c.592 0 1.02.449 1.02 1.064 0 .696-.53 1.138-1.007 1.138l-2.095.002z"></path>
    <path fill="#DC3B41" d="M32.045 33.273H14.102v6.474l2.459-.011.011-.311c.098-2.47 1.535-3.573 2.915-3.573.9 0 1.337.183 1.337.56v9.999c0 .539-.353 1.137-.854 1.137h-2.913v2.189h12.36v-2.189h-2.908c-.503 0-.856-.598-.856-1.137v-9.999c0-.377.436-.56 1.337-.56 1.38 0 2.817 1.103 2.915 3.573l.015.311 2.451.011v-6.474h-.326m.356 36.487h-7.374v2.557h1.378c.466 0 .768.077.922.237.168.172.174.423.168.821l-.007.22v8.879c-.057.428-.462 1.965-3.159 1.965-2.068 0-3.301-.794-3.301-2.121v-8.881c0-1.026.479-1.113.93-1.113h1.646V69.76h-9.375v2.557h1.057c.468 0 .771.077.928.237.177.183.173.493.162.82l-.002.221V82.4c0 2.218 1.978 4.59 7.529 4.59 5.661 0 6.386-2.73 6.386-5.106v-8.447c0-1.026.478-1.113.93-1.113h1.196l-.014-2.564m-9.324-18.658c-4.295 0-8.886 2.167-8.886 8.614 0 5.475 3.322 8.613 8.886 8.613 5.561 0 8.882-3.138 8.882-8.613 0-6.447-4.588-8.614-8.882-8.614zm.095 14.813c-1.49 0-3.474-.524-3.474-6.199 0-4.26 1.137-6.2 3.474-6.2 2.466 0 3.473 1.704 3.473 6.2 0 4.14-1.201 6.199-3.473 6.199zm9.393 36.795c-.624.006-2.053-.045-2.053-1.996l.004-.651c0-.769-.032-1.646-.411-2.349-.356-.765-1.243-1.207-1.729-1.428a6.403 6.403 0 0 0 1.891-.996c.75-.643 1.154-1.493 1.154-2.643 0-.819-.207-1.669-.577-2.391-.796-1.331-2.148-1.942-4.269-1.942l-12.334-.021-.007 2.508s.898-.011 1.599-.011c.703 0 .773.688.773.688s.021 7.819.025 10.352c0 .41-.383.852-.758.852h-1.639l.007 2.507H24.45l-.004-2.507h-2.538c-.364 0-.797-.491-.797-.906 0 0-.002-3.122-.004-4.147l3.03.003c.334 0 1.646.168 1.614 1.729l-.026 1.075c.016.952-.085 1.71.335 2.774.683 1.416 1.933 2.093 3.832 2.093h3.003v-2.595l-.33.002zM21.028 90.371c.516 0 2.293.011 3.573.011 1.161 0 1.982.511 2.227 1.399.143.551.156 1.426-.096 2.114-.342.933-1.089 1.407-2.144 1.407 0 0-2.78.002-3.56.007v-4.938z"></path>
    <path fill="#093566" d="M207.984 40.224h5.978v-7.843h2.315c5.592 0 8.903-2.699 8.903-7.232 0-5.046-3.215-7.36-10.06-7.36h-7.136v22.435zm5.978-18.192h1.543c2.057 0 3.697.739 3.697 3.021 0 2.346-1.64 3.086-3.697 3.086h-1.543v-6.107zm34.699 5.078h-9.288v4.243h3.502v4.436c-.545.256-1.317.385-2.121.385-4.371 0-7.488-2.668-7.488-7.071 0-5.239 3.985-7.264 8.838-7.264 1.414 0 3.601.354 5.464 1.447l.482-4.886c-2.185-.836-5.302-.997-6.781-.997-8.228 0-14.175 3.247-14.175 11.7 0 8.485 6.91 11.506 12.889 11.506 2.057 0 4.886-.064 8.678-1.029V27.11m2.428 13.114h6.076l1.767-4.789h8.421l1.671 4.789h6.557l-8.646-22.435h-7.328l-8.518 22.435zm14.85-9.032h-5.625l2.893-8.775h.064l2.668 8.775zM291.592 40.224h5.979V22.225h5.528v-4.436h-17.035v4.436h5.528v17.999M304.756 29.006c0 7.136 3.922 11.603 11.25 11.603 7.328 0 11.249-4.467 11.249-11.603 0-7.199-3.857-11.603-11.249-11.603s-11.25 4.404-11.25 11.603zm6.171 0c0-3.888 1.447-7.167 5.079-7.167 3.632 0 5.078 3.279 5.078 7.167 0 3.697-1.446 7.168-5.078 7.168-3.632 0-5.079-3.471-5.079-7.168zm39.005-11.217h-5.978V30.71c0 2.957-.803 5.464-3.857 5.464-3.054 0-3.856-2.507-3.856-5.464V17.789h-5.979v13.917c0 6.139 3.986 8.903 9.835 8.903 5.85 0 9.835-2.764 9.835-8.903V17.789m3.683 22.435h5.978v-8.871h1.253c2.219 0 2.99.964 4.211 4.821l1.285 4.05h6.237l-2.186-6.107c-1.125-2.732-1.254-4.435-3.183-4.95v-.064c2.893-.675 4.308-2.668 4.308-5.657 0-3.857-3.247-5.657-7.232-5.657h-10.671v22.435zm5.978-18.192h1.575c2.282 0 4.372.385 4.372 2.475 0 2.539-2.444 2.603-4.372 2.603h-1.575v-5.078zM102.235 91.496c3.681 1.187 8.489 1.781 12.347 1.781 9.201 0 18.223-2.908 18.223-13.653 0-14.959-19.588-10.447-19.588-17.155 0-3.621 4.63-3.858 7.42-3.858 3.146 0 6.351.594 9.2 1.899l.713-8.548c-2.79-.949-6.708-1.543-10.685-1.543-8.311 0-18.045 2.73-18.045 12.703 0 15.078 19.588 10.21 19.588 17.927 0 3.324-3.324 4.036-6.826 4.036-4.571 0-8.548-1.187-11.397-2.73l-.95 9.141m72.809-40.365h-11.041v23.863c0 5.462-1.483 10.091-7.123 10.091-5.639 0-7.123-4.629-7.123-10.091V51.131h-11.041v25.703c0 11.338 7.361 16.443 18.164 16.443 10.804 0 18.164-5.105 18.164-16.443V51.131m6.505 41.434h11.041V78.081h4.274c10.329 0 16.443-4.986 16.443-13.356 0-9.32-5.936-13.594-18.58-13.594h-13.178v41.434zm11.041-33.598h2.849c3.799 0 6.827 1.365 6.827 5.579 0 4.334-3.028 5.699-6.827 5.699h-2.849V58.967zM218.089 92.565h29.859v-7.836H229.13V75.35h17.156v-7.835H229.13v-8.548h18.164v-7.836h-29.205v41.434M254.333 92.565h11.041V76.181h2.315c4.096 0 5.52 1.781 7.776 8.904l2.374 7.48h11.517l-4.037-11.279c-2.077-5.045-2.315-8.191-5.876-9.141v-.119c5.342-1.246 7.954-4.927 7.954-10.447 0-7.123-5.995-10.448-13.356-10.448h-19.708v41.434zm11.041-33.598h2.909c4.215 0 8.073.712 8.073 4.571 0 4.689-4.512 4.808-8.073 4.808h-2.909v-9.379zm28.011 32.529c3.681 1.187 8.489 1.781 12.348 1.781 9.2 0 18.223-2.908 18.223-13.653 0-14.959-19.588-10.447-19.588-17.155 0-3.621 4.63-3.858 7.42-3.858 3.145 0 6.351.594 9.201 1.899l.712-8.548c-2.79-.949-6.708-1.543-10.685-1.543-8.31 0-18.046 2.73-18.046 12.703 0 15.078 19.589 10.21 19.589 17.927 0 3.324-3.324 4.036-6.826 4.036-4.571 0-8.549-1.187-11.398-2.73l-.95 9.141M337.583 92.565h11.042V59.323h10.209v-8.192h-31.46v8.192h10.209v33.242M361.896 71.848c0 13.178 7.241 21.429 20.776 21.429 13.534 0 20.776-8.251 20.776-21.429 0-13.297-7.123-21.429-20.776-21.429-13.653 0-20.776 8.132-20.776 21.429zm11.397 0c0-7.183 2.671-13.237 9.379-13.237 6.707 0 9.379 6.054 9.379 13.237 0 6.826-2.672 13.237-9.379 13.237-6.708 0-9.379-6.411-9.379-13.237zm36.004 20.717h11.042V76.181h2.315c4.096 0 5.52 1.781 7.776 8.904l2.375 7.48h11.516l-4.037-11.279c-2.077-5.045-2.315-8.191-5.876-9.141v-.119c5.342-1.246 7.954-4.927 7.954-10.447 0-7.123-5.996-10.448-13.357-10.448h-19.708v41.434zm11.042-33.598h2.909c4.214 0 8.073.712 8.073 4.571 0 4.689-4.512 4.808-8.073 4.808h-2.909v-9.379zM448.884 92.565h29.859v-7.836h-18.817V75.35h17.155v-7.835h-17.155v-8.548h18.164v-7.836h-29.206v41.434"></path>
  </g>
</svg>