
<svg width="0" height="0" style="position:absolute"><defs><svg viewBox="0 0 13 13" id="account-icon" xmlns="http://www.w3.org/2000/svg"><path d="M9.872 3.29C9.872 1.477 8.344 0 6.468 0 4.59 0 3.064 1.476 3.064 3.29c0 1.815 1.527 3.291 3.404 3.291s3.404-1.476 3.404-3.29m3.01 7.755c.253.98-.424 1.954-1.342 1.954H1.395C.477 13-.2 12.026.054 11.046c.484-1.877 1.648-3.444 3.185-4.371a4.836 4.836 0 0 0 3.229 1.222c1.244 0 2.379-.464 3.228-1.222 1.537.927 2.701 2.494 3.186 4.37"/></svg><svg viewBox="0 0 60 60" id="addresses-icon" xmlns="http://www.w3.org/2000/svg"><g fill="none" fill-rule="evenodd"><rect width="60" height="60" fill="#0854E2" rx="30"/><g stroke="#FFF"><path stroke-width="1.5" d="M21.8 14.686h18.285a2.743 2.743 0 0 1 2.743 2.743v25.6a2.743 2.743 0 0 1-2.743 2.742H21.8a2.743 2.743 0 0 1-2.743-2.742v-25.6a2.743 2.743 0 0 1 2.743-2.743z"/><path stroke-linecap="round" stroke-width="2" d="M17 30.229h4.114M17 22.914h4.114M17 37.543h4.114"/><path stroke-width="1.5" d="M34.806 27.56a2.95 2.95 0 1 1-5.9 0 2.95 2.95 0 0 1 5.9 0zm-8.297 8.619h10.697c-.049-1.824-1.037-3.418-2.94-3.93a4.521 4.521 0 0 1-2.409.71 4.53 4.53 0 0 1-2.412-.711c-1.887.5-2.882 2.097-2.936 3.93z"/></g></g></svg><svg viewBox="0 0 15 14" id="cart-icon" xmlns="http://www.w3.org/2000/svg"><path d="M14.813 2.282a.474.474 0 0 0-.391-.188H3.766l-.36-1.64a.487.487 0 0 0-.484-.391H.594c-.281 0-.5.218-.5.5 0 .281.219.5.5.5h1.937l2.031 9.28c.047.235.25.391.485.391h7.89c.282 0 .5-.218.5-.5 0-.281-.218-.5-.5-.5H5.455l-.25-1.14h7.984a.487.487 0 0 0 .485-.39l1.25-5.5a.6.6 0 0 0-.11-.422zM13.093 12.5a1.188 1.188 0 1 1-2.374 0 1.188 1.188 0 0 1 2.375 0m-5.797 0a1.187 1.187 0 1 1-2.375 0 1.187 1.187 0 0 1 2.375 0"/></svg><svg viewBox="0 0 24 24" id="checkmark" xmlns="http://www.w3.org/2000/svg"><title>Checkbox - Empty</title><g fill="none" fill-rule="evenodd"><g fill="#0E151D"><use/><path stroke="#0E151D" d="M.5.5h23v23H.5z"/></g><path d="M9.364 15.023l9.546-9.546 2.386 2.387-9.546 9.546-2.386 2.386L3 13.432l2.386-2.386 3.978 3.977z" fill="#FFF"/></g></svg><svg viewBox="0 0 12 10" id="checkmark-alt" xmlns="http://www.w3.org/2000/svg"><path d="M4.18 10L.01 5.28l1.91-1.59L4.23 6.3 10.12 0l1.87 1.64L4.18 10z"/></svg><svg viewBox="0 0 29 29" id="close-btn-black-icon" xmlns="http://www.w3.org/2000/svg"><path d="M3 3l23 23m0-23L3 26" fill="none" fill-rule="evenodd" stroke="#000" stroke-linecap="square" stroke-width="3"/></svg><svg viewBox="0 0 29 29" id="close-btn-icon" xmlns="http://www.w3.org/2000/svg"><path d="M3 3l23 23m0-23L3 26" fill="none" fill-rule="evenodd" stroke="#FFF" stroke-linecap="square" stroke-width="3"/></svg><svg viewBox="0 0 19 19" id="close-x" xmlns="http://www.w3.org/2000/svg"><g fill="none" fill-rule="evenodd"><circle cx="9" cy="9" r="9" fill="#0E151D"/><path fill="#F6F6F6" d="M9 7.586l1.556-1.556.565-.566 1.415 1.415-.566.565L10.414 9l1.556 1.556.566.565-1.415 1.415-.565-.566L9 10.414 7.444 11.97l-.565.566-1.415-1.415.566-.565L7.586 9 6.03 7.444l-.566-.565L6.88 5.464l.565.566L9 7.586z"/></g></svg><svg viewBox="0 0 9 17" id="currency-us-icon" xmlns="http://www.w3.org/2000/svg"><title>Shape</title><path d="M4.012 15.058a.487.487 0 0 0 .975 0v-1.364a3.153 3.153 0 0 0 2.663-3.11c0-1.738-1.187-2.944-3.1-3.147-1.124-.12-1.648-.628-1.648-1.6 0-.88.717-1.597 1.597-1.597a1.6 1.6 0 0 1 1.598 1.597.487.487 0 1 0 .975 0 2.575 2.575 0 0 0-2.085-2.524v-1.37a.487.487 0 0 0-.975 0v1.37a2.576 2.576 0 0 0-2.084 2.524c0 .72.214 1.31.635 1.752.433.456 1.068.73 1.885.818 1.416.15 2.228.944 2.228 2.178 0 1.2-.977 2.176-2.176 2.176-1.2 0-2.176-.977-2.176-2.176a.487.487 0 1 0-.975 0 3.153 3.153 0 0 0 2.663 3.109v1.364z" fill="none" fill-rule="evenodd"/></svg><svg viewBox="0 0 15 8" id="down-triangle" xmlns="http://www.w3.org/2000/svg"><path d="M14.93.2L7.34 7.78-.25.2h15.18z"/></svg><svg viewBox="0 0 33 22" id="email" xmlns="http://www.w3.org/2000/svg"><g stroke="#000" stroke-width=".5"><path d="M31.773 21.693H1.727c-.29 0-.485-.194-.485-.485V1.63c0-.29.194-.485.485-.485h30.046c.29 0 .485.194.485.485v19.53c0 .29-.194.533-.485.533zm-29.561-.97h29.076V2.116H2.212v18.609z"/><path d="M31.773 21.693H1.727a.465.465 0 0 1-.436-.34c-.049-.193 0-.435.145-.532l12.746-9.79c.193-.145.436-.145.581 0l1.987 1.503 1.987-1.502c.194-.146.436-.146.581 0l12.746 9.789c.145.145.242.339.145.533a.465.465 0 0 1-.436.34zm-28.64-.97h27.186L19.028 12.05l-1.987 1.503c-.194.145-.436.145-.582 0l-1.987-1.503-11.34 8.675z"/><path d="M16.75 13.648c-.097 0-.194-.048-.29-.096L1.435 2.018c-.145-.146-.242-.34-.145-.533a.465.465 0 0 1 .436-.34h30.046c.194 0 .388.146.436.34.049.193 0 .436-.145.533L17.04 13.552c-.097.048-.194.096-.291.096zM3.132 2.115L16.75 12.534l13.618-10.42H3.132z"/></g></svg><svg viewBox="0 0 24 24" id="facebook-icon" xmlns="http://www.w3.org/2000/svg"><path d="M14 8V5.6c0-1.04.24-1.6 1.92-1.6H18V0h-3.2c-4 0-5.6 2.64-5.6 5.6V8H6v4h3.2v12H14V12h3.52L18 8h-4z"/></svg><svg viewBox="0 0 24 24" id="instagram-icon" xmlns="http://www.w3.org/2000/svg"><path d="M21.6 0H2.4C1.08 0 0 1.08 0 2.4v19.2C0 22.92 1.08 24 2.4 24h19.2c1.32 0 2.4-1.08 2.4-2.4V2.4C24 1.08 22.92 0 21.6 0zM12 7.2c2.64 0 4.8 2.16 4.8 4.8 0 2.64-2.16 4.8-4.8 4.8-2.64 0-4.8-2.16-4.8-4.8 0-2.64 2.16-4.8 4.8-4.8zM3 21.6c-.36 0-.6-.24-.6-.6V10.8h2.52c-.12.36-.12.84-.12 1.2 0 3.96 3.24 7.2 7.2 7.2s7.2-3.24 7.2-7.2c0-.36 0-.84-.12-1.2h2.52V21c0 .36-.24.6-.6.6H3zM21.6 5.4c0 .36-.24.6-.6.6h-2.4c-.36 0-.6-.24-.6-.6V3c0-.36.24-.6.6-.6H21c.36 0 .6.24.6.6v2.4z"/></svg><svg viewBox="0 0 14 25" id="left-arrow-black-icon" xmlns="http://www.w3.org/2000/svg"><title>left</title><path d="M12 23L3 12.484 12 2" stroke="#0e151d" stroke-width="4" fill="none" fill-rule="evenodd"/></svg><svg viewBox="0 0 14 25" id="left-arrow-icon" xmlns="http://www.w3.org/2000/svg"><title>left</title><path d="M12 23L3 12.484 12 2" stroke-width="4" fill="none" fill-rule="evenodd"/></svg><svg viewBox="0 0 24 24" id="linkedin-icon" xmlns="http://www.w3.org/2000/svg"><path d="M8.293 24h5.143v-9.042c0-.566.062-1.002.186-1.31a3.51 3.51 0 0 1 .984-1.393c.44-.38.992-.57 1.657-.57 1.73 0 2.594 1.22 2.594 3.66V24H24v-9.285c0-2.392-.54-4.206-1.622-5.442-1.08-1.237-2.51-1.855-4.285-1.855-1.993 0-3.545.897-4.657 2.691v.049h-.023l.023-.049V7.806H8.293c.031.517.047 2.125.047 4.824 0 2.7-.016 6.49-.047 11.37zM.301 24h5.143V7.806H.301V24zM0 2.788c0-.808.27-1.475.81-2C1.352.263 2.055 0 2.92 0c.85 0 1.537.259 2.062.776.54.533.81 1.228.81 2.085 0 .775-.262 1.422-.787 1.939-.54.533-1.251.8-2.131.8h-.024C2 5.6 1.313 5.333.788 4.8.263 4.267 0 3.596 0 2.788"/></svg><svg viewBox="0 0 479 118" id="logo" xmlns="http://www.w3.org/2000/svg"><g fill="none" fill-rule="evenodd"><path fill="#093566" d="M85.738 114.883a3.108 3.108 0 0 1 3.115-3.098 3.1 3.1 0 0 1 3.098 3.098A3.103 3.103 0 0 1 88.853 118a3.112 3.112 0 0 1-3.115-3.117zm5.721 0c0-1.508-1.096-2.689-2.606-2.689-1.518 0-2.625 1.181-2.625 2.689 0 1.529 1.107 2.708 2.625 2.708 1.51 0 2.606-1.179 2.606-2.708zm-1.056 1.738h-.508l-.993-1.598h-.779v1.598h-.424v-3.469h1.514c.917 0 1.233.346 1.233.92 0 .681-.479.936-1.092.951l1.049 1.598zm-1.631-1.934c.494 0 1.214.083 1.214-.621 0-.546-.445-.61-.871-.61h-.992v1.231h.649zM0 103.319c0 8.106 6.571 14.677 14.679 14.677h56.355c8.106 0 14.674-6.571 14.674-14.677V14.934C85.708 6.828 79.14.255 71.034.459H14.679C6.571.255 0 6.828 0 14.934v88.385"/><path fill="#FFFFFE" d="M14.679 3.607c-6.256 0-11.325 5.074-11.325 11.327v88.385c0 6.256 5.069 11.325 11.325 11.325h56.355c6.253 0 11.325-5.069 11.325-11.325V14.934c0-6.253-5.072-11.327-11.325-11.327H14.679"/><path fill="#093566" d="M14.608 5.327c-5.303 0-9.605 4.301-9.605 9.607v88.385c0 5.302 4.302 9.605 9.605 9.605h56.357c5.304 0 9.605-4.303 9.605-9.605V14.934c0-5.306-4.301-9.607-9.605-9.607H14.608"/><path fill="#FFFFFE" d="M17.268 20.534h1.563c.862 0 1.55.554 1.55 1.433 0 .88-.719 1.418-1.795 1.418h-1.318v-2.851zm-2.887 6.345c0 .354-.215.565-.598.565h-.937v1.249h6.047v-1.249h-1.027c-.385 0-.598-.211-.598-.565v-2.244h1.687c2.825 0 4.315-.737 4.315-2.683 0-1.944-1.49-2.667-4.009-2.667h-6.43v1.249h.952c.383 0 .598.211.598.567v5.778zm21.109-1.903h-.707c-.383 0-.6.213-.6.568v3.263H32.85l-.339-.695c-.89.639-2.029.865-3.025.865-3.194 0-5.434-1.674-5.434-4.853 0-3.207 2.165-5.125 5.434-5.125.892 0 1.997.271 2.765.952l.305-.794h1.382l.006 3.313h-1.431c-.044-1.404-.956-2.149-2.504-2.149-1.782 0-2.627 1.22-2.627 3.675 0 2.458.845 3.633 2.627 3.633.582 0 1.289-.213 1.289-.88v-1.205c0-.355-.216-.568-.601-.568h-.796v-1.248h5.589v1.248m11.7 2.643c-1.028-.175-1.06-.401-1.448-1.253l-3.032-6.982h-2.312l-2.896 6.452c-.445.943-.73 1.676-2.044 1.795v1.092h4.612v-1.092l-.151-.012c-.358-.054-1.175-.054-1.175-.52 0-.173.102-.439.176-.611l.181-.446h3.648l.204.446c.055.185.205.53.205.717 0 .414-.922.387-1.238.426v1.092h5.432v-1.092l-.162-.012zm-7.65-2.697l1.41-3.159 1.292 3.159H39.54z"/><path fill="#FFFFFE" d="M73.665 32.503c1.457-1.48 1.491-5.03 1.491-5.03-1.465-2.668-4.54-3.468-4.54-3.468-.685-.488-1.237-.039-1.458.204h-.013L44.488 9.158c-1.795-.929-4.275 2.253-4.901 3.421-.25.426.555 1.05 1.1 1.384 2.241 1.467 3.312-2.293 4.131-3.622l23.85 15.048c-.047.017.079 1.243.141 1.297-.018 1.959 1.549 3.581.625 6.413-.248 3.971-4.554 4.765-6.892 7.23-2.157 2.111-6.4 1.845-8.18 3.578-.013.017-.05.049-.05.049l-.015-.075c-1.532-4.013-2.444-4.239-2.914-5.851-1.881-.709-4.094-.879-5.894.085-1.72 1.125-2.587 3.258-2.293 5.138.038 1.923 2.753 4.01 4.178 4.844-.914 1.327-1.353 2.94-1.374 3.613-.226 2.847 2.031 5.575 2.664 6.701 2.669 3.961 4.177 7.103 4.767 8.21.094.216.236.388.098.684-.034.077-2.304 4.05 1.444 9.75 1.526 2.932 3.717 9.475 3.738 9.509.871.931-1.183.355-1.394 2.5-1.471.575-12.616 9.106-15.126 11.361-1.001.294-2.298.252-2.717 1.504-.064.1-.451 1.209-.694 1.477-1.074 1.235-2.324 3.432-2.557 5.584-.245 1.102.031 3.249 1.317 3.819.582.258.827.074.98 0 .168-.085.89-2.044.984-2.27.888-2.157 2.191-2.736 5.197-5.725 1.501.417 2.159 1.305 3.705 1.682 4.182-3.882 8.385-7.438 12.494-11.421-.63 6.166-1.214 12.498-1.198 14.193-.265 1.082-.296 2.933.468 3.848 0 0 6.827.4 8.144.304.654-.051.69-.441.69-.441s.612-.915-1.045-2.146c-.48-.355-1.631-1.785-2.523-2.372 1.177-.264 2.418-.468 2.691-.468-.315-3.239-.383-10.244-.618-19.407-1.017-9.489-1.102-12.683-5.829-32.129 3.345-3.803 3.215-6.165 6.432-10.093 1.731-3.375 4.404-10.229 5.553-13.861zM59.403 50.056c-.08-.272-.604-1.62-.845-2.336-.032-.096 4.27-2.906 4.27-2.906s.055.23.087.509c0 0-2.905 4.339-3.512 4.733zm-26.89 51.334c-.14.002-.698-.054-.687-.676l.004-.644c0-.996-.073-2.037-.558-2.973a3.11 3.11 0 0 0-.394-.604c.053-.039.116-.067.162-.105l.028-.021.025-.021c1.091-.932 1.642-2.179 1.642-3.699 0-1.036-.26-2.112-.731-3.029l-.021-.039-.021-.039c-.679-1.132-1.663-1.883-2.972-2.284 1.784-1.054 2.691-2.845 2.691-5.372v-8.168h2.135l-.031-5.346h-5.013c2.907-1.627 4.578-4.642 4.578-8.654 0-4.407-1.893-7.12-4.477-8.587h1.937v-4.974h-3.765v-8.898c.842.041 1.416.897 1.47 2.221l.066 1.646 5.182.017v-9.26H12.709v9.26l5.191-.017.064-1.646c.052-1.326.626-2.18 1.465-2.221v8.898h-3.762v4.974h1.612c-2.585 1.467-4.478 4.18-4.478 8.587 0 4.012 1.674 7.027 4.582 8.654h-4.546v5.337h2.144V82.4c0 1.639.756 3.34 2.606 4.507l-4.814-.009-.013 5.267s1.591.016 2.047.009c-.005.058.358.005.311.377-.009 1.474-.011 6.769-.009 8.417 0 .441-.313.309-.313.39-.434-.007-2.025.007-2.025.007l.002 5.216h12.778v-1.535c.988 1.094 2.414 1.648 4.265 1.648h4.392v-5.287l-1.695-.017zm-9.781-27.674l3.104-.009s.262.018.262.253v8.062c0 .575-.502 1.044-1.769 1.044-1.265 0-1.908-.465-1.908-1.039v-8.062c0-.209.311-.249.311-.249zm2.52-14c0 3.19-.7 4.806-2.08 4.806-.674 0-2.082 0-2.082-4.806 0-4.807 1.461-4.807 2.082-4.807.878 0 2.08 0 2.08 4.807zm-2.493 41.635c-.357 0-.368-.327-.368-.327v-2.031h1.335c.411 0 .617.059.617.525.007.122.011.972.011.972 0 .261-.017.593-.004.861h-1.591zm-.338-7.398v-2.204h2.082c.592 0 1.02.449 1.02 1.064 0 .696-.53 1.138-1.007 1.138l-2.095.002z"/><path fill="#DC3B41" d="M32.045 33.273H14.102v6.474l2.459-.011.011-.311c.098-2.47 1.535-3.573 2.915-3.573.9 0 1.337.183 1.337.56v9.999c0 .539-.353 1.137-.854 1.137h-2.913v2.189h12.36v-2.189h-2.908c-.503 0-.856-.598-.856-1.137v-9.999c0-.377.436-.56 1.337-.56 1.38 0 2.817 1.103 2.915 3.573l.015.311 2.451.011v-6.474h-.326m.356 36.487h-7.374v2.557h1.378c.466 0 .768.077.922.237.168.172.174.423.168.821l-.007.22v8.879c-.057.428-.462 1.965-3.159 1.965-2.068 0-3.301-.794-3.301-2.121v-8.881c0-1.026.479-1.113.93-1.113h1.646V69.76h-9.375v2.557h1.057c.468 0 .771.077.928.237.177.183.173.493.162.82l-.002.221V82.4c0 2.218 1.978 4.59 7.529 4.59 5.661 0 6.386-2.73 6.386-5.106v-8.447c0-1.026.478-1.113.93-1.113h1.196l-.014-2.564m-9.324-18.658c-4.295 0-8.886 2.167-8.886 8.614 0 5.475 3.322 8.613 8.886 8.613 5.561 0 8.882-3.138 8.882-8.613 0-6.447-4.588-8.614-8.882-8.614zm.095 14.813c-1.49 0-3.474-.524-3.474-6.199 0-4.26 1.137-6.2 3.474-6.2 2.466 0 3.473 1.704 3.473 6.2 0 4.14-1.201 6.199-3.473 6.199zm9.393 36.795c-.624.006-2.053-.045-2.053-1.996l.004-.651c0-.769-.032-1.646-.411-2.349-.356-.765-1.243-1.207-1.729-1.428a6.403 6.403 0 0 0 1.891-.996c.75-.643 1.154-1.493 1.154-2.643 0-.819-.207-1.669-.577-2.391-.796-1.331-2.148-1.942-4.269-1.942l-12.334-.021-.007 2.508s.898-.011 1.599-.011c.703 0 .773.688.773.688s.021 7.819.025 10.352c0 .41-.383.852-.758.852h-1.639l.007 2.507H24.45l-.004-2.507h-2.538c-.364 0-.797-.491-.797-.906 0 0-.002-3.122-.004-4.147l3.03.003c.334 0 1.646.168 1.614 1.729l-.026 1.075c.016.952-.085 1.71.335 2.774.683 1.416 1.933 2.093 3.832 2.093h3.003v-2.595l-.33.002zM21.028 90.371c.516 0 2.293.011 3.573.011 1.161 0 1.982.511 2.227 1.399.143.551.156 1.426-.096 2.114-.342.933-1.089 1.407-2.144 1.407 0 0-2.78.002-3.56.007v-4.938z"/><path fill="#093566" d="M207.984 40.224h5.978v-7.843h2.315c5.592 0 8.903-2.699 8.903-7.232 0-5.046-3.215-7.36-10.06-7.36h-7.136v22.435zm5.978-18.192h1.543c2.057 0 3.697.739 3.697 3.021 0 2.346-1.64 3.086-3.697 3.086h-1.543v-6.107zm34.699 5.078h-9.288v4.243h3.502v4.436c-.545.256-1.317.385-2.121.385-4.371 0-7.488-2.668-7.488-7.071 0-5.239 3.985-7.264 8.838-7.264 1.414 0 3.601.354 5.464 1.447l.482-4.886c-2.185-.836-5.302-.997-6.781-.997-8.228 0-14.175 3.247-14.175 11.7 0 8.485 6.91 11.506 12.889 11.506 2.057 0 4.886-.064 8.678-1.029V27.11m2.428 13.114h6.076l1.767-4.789h8.421l1.671 4.789h6.557l-8.646-22.435h-7.328l-8.518 22.435zm14.85-9.032h-5.625l2.893-8.775h.064l2.668 8.775zM291.592 40.224h5.979V22.225h5.528v-4.436h-17.035v4.436h5.528v17.999M304.756 29.006c0 7.136 3.922 11.603 11.25 11.603 7.328 0 11.249-4.467 11.249-11.603 0-7.199-3.857-11.603-11.249-11.603s-11.25 4.404-11.25 11.603zm6.171 0c0-3.888 1.447-7.167 5.079-7.167 3.632 0 5.078 3.279 5.078 7.167 0 3.697-1.446 7.168-5.078 7.168-3.632 0-5.079-3.471-5.079-7.168zm39.005-11.217h-5.978V30.71c0 2.957-.803 5.464-3.857 5.464-3.054 0-3.856-2.507-3.856-5.464V17.789h-5.979v13.917c0 6.139 3.986 8.903 9.835 8.903 5.85 0 9.835-2.764 9.835-8.903V17.789m3.683 22.435h5.978v-8.871h1.253c2.219 0 2.99.964 4.211 4.821l1.285 4.05h6.237l-2.186-6.107c-1.125-2.732-1.254-4.435-3.183-4.95v-.064c2.893-.675 4.308-2.668 4.308-5.657 0-3.857-3.247-5.657-7.232-5.657h-10.671v22.435zm5.978-18.192h1.575c2.282 0 4.372.385 4.372 2.475 0 2.539-2.444 2.603-4.372 2.603h-1.575v-5.078zM102.235 91.496c3.681 1.187 8.489 1.781 12.347 1.781 9.201 0 18.223-2.908 18.223-13.653 0-14.959-19.588-10.447-19.588-17.155 0-3.621 4.63-3.858 7.42-3.858 3.146 0 6.351.594 9.2 1.899l.713-8.548c-2.79-.949-6.708-1.543-10.685-1.543-8.311 0-18.045 2.73-18.045 12.703 0 15.078 19.588 10.21 19.588 17.927 0 3.324-3.324 4.036-6.826 4.036-4.571 0-8.548-1.187-11.397-2.73l-.95 9.141m72.809-40.365h-11.041v23.863c0 5.462-1.483 10.091-7.123 10.091-5.639 0-7.123-4.629-7.123-10.091V51.131h-11.041v25.703c0 11.338 7.361 16.443 18.164 16.443 10.804 0 18.164-5.105 18.164-16.443V51.131m6.505 41.434h11.041V78.081h4.274c10.329 0 16.443-4.986 16.443-13.356 0-9.32-5.936-13.594-18.58-13.594h-13.178v41.434zm11.041-33.598h2.849c3.799 0 6.827 1.365 6.827 5.579 0 4.334-3.028 5.699-6.827 5.699h-2.849V58.967zM218.089 92.565h29.859v-7.836H229.13V75.35h17.156v-7.835H229.13v-8.548h18.164v-7.836h-29.205v41.434M254.333 92.565h11.041V76.181h2.315c4.096 0 5.52 1.781 7.776 8.904l2.374 7.48h11.517l-4.037-11.279c-2.077-5.045-2.315-8.191-5.876-9.141v-.119c5.342-1.246 7.954-4.927 7.954-10.447 0-7.123-5.995-10.448-13.356-10.448h-19.708v41.434zm11.041-33.598h2.909c4.215 0 8.073.712 8.073 4.571 0 4.689-4.512 4.808-8.073 4.808h-2.909v-9.379zm28.011 32.529c3.681 1.187 8.489 1.781 12.348 1.781 9.2 0 18.223-2.908 18.223-13.653 0-14.959-19.588-10.447-19.588-17.155 0-3.621 4.63-3.858 7.42-3.858 3.145 0 6.351.594 9.201 1.899l.712-8.548c-2.79-.949-6.708-1.543-10.685-1.543-8.31 0-18.046 2.73-18.046 12.703 0 15.078 19.589 10.21 19.589 17.927 0 3.324-3.324 4.036-6.826 4.036-4.571 0-8.549-1.187-11.398-2.73l-.95 9.141M337.583 92.565h11.042V59.323h10.209v-8.192h-31.46v8.192h10.209v33.242M361.896 71.848c0 13.178 7.241 21.429 20.776 21.429 13.534 0 20.776-8.251 20.776-21.429 0-13.297-7.123-21.429-20.776-21.429-13.653 0-20.776 8.132-20.776 21.429zm11.397 0c0-7.183 2.671-13.237 9.379-13.237 6.707 0 9.379 6.054 9.379 13.237 0 6.826-2.672 13.237-9.379 13.237-6.708 0-9.379-6.411-9.379-13.237zm36.004 20.717h11.042V76.181h2.315c4.096 0 5.52 1.781 7.776 8.904l2.375 7.48h11.516l-4.037-11.279c-2.077-5.045-2.315-8.191-5.876-9.141v-.119c5.342-1.246 7.954-4.927 7.954-10.447 0-7.123-5.996-10.448-13.357-10.448h-19.708v41.434zm11.042-33.598h2.909c4.214 0 8.073.712 8.073 4.571 0 4.689-4.512 4.808-8.073 4.808h-2.909v-9.379zM448.884 92.565h29.859v-7.836h-18.817V75.35h17.155v-7.835h-17.155v-8.548h18.164v-7.836h-29.206v41.434"/></g></svg><svg viewBox="0 0 25 25" id="low-price-guarantee" xmlns="http://www.w3.org/2000/svg"><svg width="25" height="25" viewBox="0 0 25 25"><path fill="#021582" stroke="#021582" d="M12.5 1C6.159 1 1 6.16 1 12.5c0 3.072 1.196 5.96 3.368 8.132a.487.487 0 1 0 .69-.69A10.456 10.456 0 0 1 1.974 12.5c0-5.804 4.722-10.525 10.525-10.525 5.804 0 10.525 4.721 10.525 10.525S18.304 23.025 12.5 23.025a.488.488 0 0 0 0 .975C18.84 24 24 18.84 24 12.5S18.841 1 12.5 1z"/></svg><svg x="8" y="4" width="9" height="17" viewBox="0 0 9 17"><path fill="#021582" stroke="#021582" d="M4.012 15.058a.487.487 0 0 0 .975 0v-1.364a3.153 3.153 0 0 0 2.663-3.11c0-1.738-1.187-2.944-3.1-3.147-1.124-.12-1.648-.628-1.648-1.6A1.6 1.6 0 0 1 4.499 4.24a1.6 1.6 0 0 1 1.598 1.597.487.487 0 1 0 .975 0 2.575 2.575 0 0 0-2.085-2.524v-1.37a.487.487 0 0 0-.975 0v1.37a2.576 2.576 0 0 0-2.084 2.524c0 .72.214 1.31.635 1.752.433.456 1.068.73 1.885.818 1.416.15 2.228.944 2.228 2.178 0 1.2-.977 2.176-2.176 2.176-1.2 0-2.176-.977-2.176-2.176a.487.487 0 1 0-.975 0 3.153 3.153 0 0 0 2.663 3.109v1.364z"/></svg></svg><svg viewBox="0 0 30 17" id="menu-icon" xmlns="http://www.w3.org/2000/svg"><path d="M1.5 1.5h26.542M1.5 8.5h26.542M1.5 15.5h26.505" fill="none" fill-rule="evenodd" stroke="#000" stroke-linecap="square" stroke-width="3"/></svg><svg viewBox="0 0 60 60" id="orders" xmlns="http://www.w3.org/2000/svg"><g fill="none" fill-rule="evenodd"><rect width="60" height="60" fill="#0854E2" rx="30"/><path stroke="#FFF" stroke-width="1.5" d="M22.194 18.29h17.037a2.555 2.555 0 0 1 2.556 2.556v23.852a2.555 2.555 0 0 1-2.556 2.555H22.194a2.556 2.556 0 0 1-2.555-2.555V20.846a2.556 2.556 0 0 1 2.555-2.556z"/><path d="M33.186 16.112a2.473 2.473 0 0 0-4.946 0h-2.544c-.822 0-1.488.666-1.488 1.488v1.153c0 .822.666 1.489 1.488 1.489H35.73c.822 0 1.488-.667 1.488-1.489V17.6c0-.822-.666-1.488-1.488-1.488h-2.543z"/><path stroke="#FFF" stroke-width="1.5" d="M33.186 16.112a2.473 2.473 0 0 0-4.946 0h-2.544c-.822 0-1.488.666-1.488 1.488v1.153c0 .822.666 1.489 1.488 1.489H35.73c.822 0 1.488-.667 1.488-1.489V17.6c0-.822-.666-1.488-1.488-1.488h-2.543z"/><path stroke="#FFF" stroke-linecap="round" stroke-width="2" d="M28.495 26.737h9.157"/><path fill="#FFF" d="M25.478 26.737a.852.852 0 1 1-1.704 0 .852.852 0 0 1 1.704 0"/><path stroke="#FFF" stroke-linecap="round" stroke-width="2" d="M28.495 33.551h9.157"/><path fill="#FFF" d="M25.478 33.551a.852.852 0 1 1-1.704 0 .852.852 0 0 1 1.704 0"/><path stroke="#FFF" stroke-linecap="round" stroke-width="2" d="M28.495 40.366h9.157"/><path fill="#FFF" d="M25.478 40.366a.852.852 0 1 1-1.704 0 .852.852 0 0 1 1.704 0m6.087-24.221a.852.852 0 1 1-1.704 0 .852.852 0 0 1 1.704 0"/></g></svg><svg viewBox="0 0 60 60" id="payment-settings" xmlns="http://www.w3.org/2000/svg"><g fill="none" fill-rule="evenodd"><rect width="60" height="60" fill="#0854E2" rx="30"/><path fill="#FFF" d="M14 26.313h30.573v-1.267H14z"/><g transform="translate(14 17.118)" fill="#FFF"><path d="M2.535 20.231c-.7 0-1.267-.568-1.267-1.267V3.281c0-.699.567-1.267 1.267-1.267h25.504c.7 0 1.268.568 1.268 1.267v11.55c.628.376 1.049.973 1.267 1.645V3.281A2.538 2.538 0 0 0 28.039.747H2.535A2.538 2.538 0 0 0 0 3.28v15.683a2.537 2.537 0 0 0 2.535 2.534h18.433a3.33 3.33 0 0 1-.463-1.267H2.535z"/><path d="M0 6.766h30.574V5.499H0zm25.069 6.441a4.876 4.876 0 0 0-4.871 4.87 4.876 4.876 0 0 0 4.87 4.872 4.876 4.876 0 0 0 4.872-4.871 4.875 4.875 0 0 0-4.871-4.871m0 11.009a6.145 6.145 0 0 1-6.139-6.138 6.145 6.145 0 0 1 6.139-6.138 6.146 6.146 0 0 1 6.139 6.138 6.144 6.144 0 0 1-6.14 6.138"/><path d="M25.285 20.05c.27-.036.471-.126.61-.272a.796.796 0 0 0 .207-.572.606.606 0 0 0-.05-.252.634.634 0 0 0-.146-.193.935.935 0 0 0-.219-.145 2.712 2.712 0 0 0-.273-.114l-.129 1.549zm-.242-4.018a1.331 1.331 0 0 0-.362.09.805.805 0 0 0-.243.153.567.567 0 0 0-.14.205.654.654 0 0 0-.044.24.575.575 0 0 0 .192.447c.06.056.13.107.21.152.083.044.17.085.267.122l.12-1.409zm.444 1.593c.182.055.364.117.543.184.18.067.341.154.485.26.144.106.26.239.35.397.088.16.133.356.133.595 0 .235-.04.457-.119.664a1.586 1.586 0 0 1-.347.547 1.775 1.775 0 0 1-.558.387c-.221.1-.474.16-.757.178l-.045.558a.268.268 0 0 1-.075.163.236.236 0 0 1-.177.074h-.347l.069-.813a2.84 2.84 0 0 1-.837-.244 2.341 2.341 0 0 1-.666-.453l.288-.43a.295.295 0 0 1 .1-.092.28.28 0 0 1 .136-.036.34.34 0 0 1 .18.06c.064.039.135.085.216.137.081.052.173.104.276.157.105.053.228.093.37.119l.14-1.7a6.243 6.243 0 0 1-.534-.179 1.782 1.782 0 0 1-.475-.272 1.255 1.255 0 0 1-.34-.428 1.433 1.433 0 0 1-.13-.646 1.483 1.483 0 0 1 .45-1.059c.15-.144.332-.262.547-.356.216-.094.462-.147.741-.16l.043-.479a.27.27 0 0 1 .075-.163.23.23 0 0 1 .178-.072h.347l-.06.746c.268.043.5.119.695.23.195.11.363.233.506.37l-.228.348a.404.404 0 0 1-.103.113.217.217 0 0 1-.129.039.329.329 0 0 1-.136-.037 3.047 3.047 0 0 1-.178-.089 2.762 2.762 0 0 0-.223-.103 1.736 1.736 0 0 0-.273-.089l-.131 1.574z"/></g></g></svg><svg viewBox="0 0 60 60" id="personal-data" xmlns="http://www.w3.org/2000/svg"><g fill="none" fill-rule="evenodd"><rect width="60" height="60" fill="#0854E2" rx="30"/><path fill="#FFF" d="M29.917 19.5c-2.53 0-4.23 1.953-4.23 4.86 0 3.063 1.897 5.555 4.23 5.555s4.23-2.492 4.23-5.555c0-2.907-1.7-4.86-4.23-4.86zm9.413 19.623h.009-.009zm-17.822-.393c.668.361 2.907 1.27 8.532 1.27 5.63 0 7.865-.906 8.532-1.268-.178-4.344-3.337-7.235-7.971-7.235H29.48c-4.635 0-7.792 2.89-7.972 7.233zm8.532 2.77c-7.702 0-9.62-1.652-9.813-1.84L20 39.439v-.316c0-4.553 2.65-7.859 6.818-8.831-1.582-1.257-2.631-3.446-2.631-5.932 0-3.745 2.356-6.36 5.73-6.36 3.374 0 5.73 2.615 5.73 6.36 0 2.457-1.026 4.625-2.578 5.889 4.279.914 7.011 4.252 7.011 8.874v.316l-.227.221c-.193.188-2.111 1.84-9.813 1.84z"/></g></svg><svg viewBox="0 0 113 113" id="play-button" xmlns="http://www.w3.org/2000/svg"><title>play button</title><path d="M56.5 113C25.296 113 0 87.704 0 56.5S25.296 0 56.5 0 113 25.296 113 56.5 87.704 113 56.5 113zm36.078-55.82l-57.18-32.674v65.35l57.18-32.675z" fill="#F6F6F6" fill-rule="evenodd"/></svg><svg viewBox="0 0 61 60" id="players-club" xmlns="http://www.w3.org/2000/svg"><g fill="none" fill-rule="evenodd"><path fill="#0854E2" fill-rule="nonzero" d="M39.765 57.275c.764-1.975 2.982-2.963 5.047-2.203 2.6.987 5.43-1.064 5.276-3.798-.076-2.127 1.53-3.874 3.67-4.026 2.83-.228 4.513-3.115 3.29-5.621-.919-1.9-.154-4.178 1.681-5.166 2.447-1.291 2.83-4.71.689-6.456-1.606-1.368-1.912-3.722-.612-5.394 1.759-2.202.688-5.393-1.988-6.228-2.065-.608-3.289-2.66-2.753-4.71.688-2.735-1.606-5.241-4.36-4.862a3.937 3.937 0 0 1-4.434-3.19c-.46-2.734-3.595-4.102-5.965-2.659-1.835 1.14-4.206.608-5.353-1.139-1.53-2.279-4.97-2.279-6.577 0-1.223 1.747-3.594 2.279-5.352 1.14-2.371-1.444-5.506-.076-5.965 2.658-.383 2.051-2.37 3.494-4.435 3.19-2.753-.38-5.048 2.127-4.36 4.862.536 2.05-.688 4.178-2.752 4.71-2.677.76-3.747 4.026-1.988 6.228 1.3 1.672 1.07 4.102-.612 5.394C-.23 31.828.152 35.17 2.6 36.46c1.912.988 2.6 3.267 1.682 5.166-1.223 2.506.46 5.469 3.289 5.62 2.14.153 3.747 1.976 3.67 4.027-.076 2.81 2.677 4.785 5.277 3.798 1.988-.76 4.206.228 5.047 2.203 1.07 2.582 4.359 3.266 6.423 1.367 1.53-1.443 3.977-1.443 5.506 0 1.835 1.975 5.2 1.215 6.27-1.367z"/><text fill="#FFF" font-family="Oswald-Bold, Oswald" font-size="24" font-weight="bold"><tspan x="31.244" y="44">C</tspan></text><text fill="#FFF" font-family="Oswald-Bold, Oswald" font-size="24" font-weight="bold"><tspan x="18.148" y="36">P</tspan></text></g></svg><svg viewBox="0 0 15 16" id="plus-icon" xmlns="http://www.w3.org/2000/svg"><title>+</title><text fill="#0854E2" fill-rule="evenodd" transform="translate(-343 -533)" font-family="Oswald-Medium, Oswald" font-size="36" font-weight="400" letter-spacing="2.571"><tspan x="343.938" y="556">+</tspan></text></svg><svg viewBox="0 0 10 10" id="radio-dot" xmlns="http://www.w3.org/2000/svg"><circle cx="5" cy="5" r="5"/></svg><svg viewBox="0 0 24 24" id="radio-dot-alt" xmlns="http://www.w3.org/2000/svg"><title>Oval</title><g fill="none" fill-rule="evenodd"><path d="M12 24C5.373 24 0 18.627 0 12S5.373 0 12 0s12 5.373 12 12-5.373 12-12 12zm0-4a8 8 0 1 0 0-16 8 8 0 0 0 0 16z" fill="#0E151D" fill-rule="nonzero"/><circle fill="#31D931" cx="12" cy="12" r="6"/></g></svg><svg viewBox="0 0 14 14" id="radio-dot-alt-small" xmlns="http://www.w3.org/2000/svg"><circle cx="7" cy="7" r="7" fill="#0E151D"/><circle cx="7" cy="7" r="3" fill="#31D931"/></svg><svg viewBox="0 0 12 12" id="radio-dot-open" xmlns="http://www.w3.org/2000/svg"><title>Oval 2</title><circle cx="35" cy="5" r="5" transform="translate(-29 1)" stroke="#0E151D" stroke-width="2" fill="none" fill-rule="evenodd"/></svg><svg viewBox="0 0 8 16" id="rectangle" xmlns="http://www.w3.org/2000/svg"><path fill="#31D931" fill-rule="evenodd" d="M0 0h8v16H0z"/></svg><svg viewBox="0 0 30 10" id="rectangle-horizontal-icon" xmlns="http://www.w3.org/2000/svg"><path fill-rule="evenodd" d="M0 0h30v10H0z"/></svg><svg viewBox="0 0 8 16" id="rectangle-vertical-blue-icon" xmlns="http://www.w3.org/2000/svg"><path fill="#0854E2" fill-rule="evenodd" d="M0 0h8v16H0z"/></svg><svg viewBox="0 0 8 16" id="rectangle-vertical-green-icon" xmlns="http://www.w3.org/2000/svg"><path fill="#71e328" fill-rule="evenodd" d="M0 0h8v16H0z"/></svg><svg viewBox="0 0 8 16" id="rectangle-vertical-icon" xmlns="http://www.w3.org/2000/svg"><path fill-rule="evenodd" d="M0 0h8v16H0z"/></svg><svg viewBox="0 0 14 25" id="right-arrow-black-icon" xmlns="http://www.w3.org/2000/svg"><title>right</title><path d="M2 2l9 10.516L2 23" stroke="#0e151d" stroke-width="4" fill="none" fill-rule="evenodd"/></svg><svg viewBox="0 0 12 18" id="right-arrow-black2-icon" xmlns="http://www.w3.org/2000/svg"><title>Left Arrow</title><path d="M2 2l7 7.01L2 16" stroke="#0e151d" stroke-width="3.379" fill="none" fill-rule="evenodd"/></svg><svg viewBox="0 0 12 18" id="right-arrow-blue-icon" xmlns="http://www.w3.org/2000/svg"><title>Left Arrow</title><path d="M2 2l7 7.01L2 16" stroke="#0854E2" stroke-width="3.379" fill="none" fill-rule="evenodd"/></svg><svg viewBox="0 0 14 25" id="right-arrow-icon" xmlns="http://www.w3.org/2000/svg"><title>right</title><path d="M2 2l9 10.516L2 23" stroke-width="4" fill="none" fill-rule="evenodd"/></svg><svg viewBox="0 0 12 18" id="right-arrow-white-icon" xmlns="http://www.w3.org/2000/svg"><title>Left Arrow</title><path d="M2 2l7 7.01L2 16" stroke="#fff" stroke-width="3.379" fill="none" fill-rule="evenodd"/></svg><svg viewBox="0 0 11 23" id="right-arrow-white-m-icon" xmlns="http://www.w3.org/2000/svg"><path fill="none" stroke="#FFF" stroke-width="2" d="M1 1.455L9.182 11.47 1 21.455"/></svg><svg viewBox="0 0 12 18" id="right-arrow-white2-icon" xmlns="http://www.w3.org/2000/svg"><path d="M2 2l7 7.01L2 16" stroke="#FFF" stroke-width="3.379" fill="none" fill-rule="evenodd"/></svg><svg viewBox="0 0 14 13" id="search-icon" xmlns="http://www.w3.org/2000/svg"><title>Search Icon</title><g transform="translate(1 1)" stroke-width="1.5" fill="none" fill-rule="evenodd"><circle cx="4.5" cy="4.5" r="4.5"/><path d="M7.994 8.095l3.633 3.238"/></g></svg><svg viewBox="0 0 19 19" id="search-mobile-icon" xmlns="http://www.w3.org/2000/svg"><g fill="none" fill-rule="evenodd" stroke="#3C3C3C" stroke-width="3" transform="translate(2 2)"><circle cx="6.5" cy="6.5" r="6.5"/><path d="M11 11l5 5"/></g></svg><svg viewBox="0 0 6 17" id="select-arrows-icon" xmlns="http://www.w3.org/2000/svg"><path fill="#0854E2" d="M3 0L0 6h6zM0 11l3 6 3-6z"/></svg><svg viewBox="0 0 11 13" id="store-icon" xmlns="http://www.w3.org/2000/svg"><path d="M7.62 10.576L5.5 13l-2.12-2.424A5.502 5.502 0 0 1 5.5 0a5.5 5.5 0 0 1 2.12 10.576zM5.5 9a3.5 3.5 0 1 0 0-7 3.5 3.5 0 0 0 0 7z"/></svg><svg viewBox="0 0 20 20" id="tooltip-icon" xmlns="http://www.w3.org/2000/svg"><title>Tool Tip</title><g data-name="Layer 2"><path d="M10 0a10 10 0 1 0 10 10A10 10 0 0 0 10 0zm0 15.55a1.2 1.2 0 1 1 0-2.4 1.2 1.2 0 1 1 0 2.4zm2.71-6.75a4.89 4.89 0 0 1-.44.51c-.11.11-.24.22-.4.4a3.76 3.76 0 0 0-.42.42 3.63 3.63 0 0 0-.29.31 1.47 1.47 0 0 0-.27 1v.69H9.16v-.94a2 2 0 0 1 .16-.93 3.64 3.64 0 0 1 .64-.8l1.11-1.11a1.38 1.38 0 0 0 .36-1 1.31 1.31 0 0 0-.43-.93 1.46 1.46 0 0 0-1.93 0 1.43 1.43 0 0 0-.44 1H6.8a3.15 3.15 0 0 1 1.07-2.2 3.41 3.41 0 0 1 2.29-.78 3.24 3.24 0 0 1 2.22.73 2.6 2.6 0 0 1 .87 2.09 2.66 2.66 0 0 1-.54 1.54z" fill="#717475" data-name="Layer 1"/></g></svg><svg viewBox="0 0 24 24" id="twitter-icon" xmlns="http://www.w3.org/2000/svg"><path d="M23.415 5.314a9.682 9.682 0 0 1-2.76.749 4.777 4.777 0 0 0 2.113-2.63 9.678 9.678 0 0 1-3.05 1.153 4.82 4.82 0 0 0-3.507-1.501c-2.653 0-4.804 2.128-4.804 4.754 0 .372.043.735.124 1.083A13.686 13.686 0 0 1 1.63 3.955a4.693 4.693 0 0 0-.65 2.39c0 1.65.848 3.104 2.137 3.957A4.823 4.823 0 0 1 .94 9.707v.06c0 2.303 1.655 4.224 3.853 4.661a4.856 4.856 0 0 1-2.17.082 4.802 4.802 0 0 0 4.488 3.3 9.702 9.702 0 0 1-5.966 2.036c-.388 0-.77-.023-1.146-.067a13.7 13.7 0 0 0 7.364 2.136c8.836 0 13.668-7.243 13.668-13.525 0-.206-.005-.411-.014-.615a9.704 9.704 0 0 0 2.397-2.46z"/></svg><svg viewBox="0 0 60 60" id="wishlist" xmlns="http://www.w3.org/2000/svg"><g fill="none" fill-rule="evenodd"><rect width="60" height="60" fill="#0854E2" rx="30"/><path fill="#FFF" d="M24.736 21.394c-.142 0-.282.007-.423.022-1.765.188-3.053 1.552-3.4 2.183-1.13 2.089-.341 5.23 1.12 6.638l8.238 8.238 8.229-8.229c1.467-1.416 2.255-4.555 1.125-6.649-.34-.614-1.7-2.012-3.547-2.185-1.767-.167-3.538.816-5.271 2.917l-.524.636-.54-.623c-1.695-1.958-3.378-2.948-5.007-2.948zm5.535 19.051l-9.214-9.214c-2.046-1.972-2.688-5.854-1.366-8.299.395-.719 1.964-2.634 4.475-2.901 2.057-.22 4.102.726 6.092 2.807 1.89-2.06 3.887-3.004 5.95-2.813 2.618.244 4.267 2.228 4.638 2.903l.003.005c1.322 2.444.68 6.326-1.373 8.307l-9.205 9.205z"/></g></svg><svg viewBox="0 0 27 24" id="wishlist-heart" xmlns="http://www.w3.org/2000/svg"><title>noun_1073626_cc</title><path d="M23.959 2.359C22.428.828 20.44 0 18.33 0c-1.862 0-3.641.62-5.048 1.82A7.948 7.948 0 0 0 8.234 0C6.083 0 4.097.828 2.607 2.359A7.823 7.823 0 0 0 .248 7.986c0 2.11.828 4.138 2.359 5.628l10.138 10.138c.083.165.29.248.496.248a.817.817 0 0 0 .58-.248l10.138-10.097a7.823 7.823 0 0 0 2.358-5.627 8.09 8.09 0 0 0-2.358-5.67zM22.8 12.455c-.041 0-.041 0 0 0l-9.559 9.559-9.558-9.559A6.26 6.26 0 0 1 1.82 7.986a6.26 6.26 0 0 1 1.862-4.469 6.26 6.26 0 0 1 4.469-1.862 6.26 6.26 0 0 1 4.469 1.862.8.8 0 0 0 1.158 0 6.26 6.26 0 0 1 4.47-1.862 6.26 6.26 0 0 1 4.468 1.862 6.26 6.26 0 0 1 1.862 4.47c0 1.696-.62 3.268-1.779 4.468z" fill="#000" fill-rule="nonzero"/></svg><svg viewBox="0 0 18 18" id="x-icon" xmlns="http://www.w3.org/2000/svg"><path d="M16.333 1.667L1.606 16.394m14.727-.061L1.606 1.606" fill="none" fill-rule="evenodd" stroke="#2F2F2F" stroke-linecap="square" stroke-width="2"/></svg></defs></svg>